# xmcd
#
# Track frame offsets: 
#        151
#        16001
#        32777
#        48365
#        67474
#        81566
#        101229
#        120475
#        135361
#        149163
#        163099
#        175186
#        186913
#        199317
#        218190
#
# Disc length: 3134 seconds
#
# Revision: 0
# Processed by: cddbd v1.5.2PL0 Copyright (c) Steve Scherf et al.
# Submitted via: ExactAudioCopyFreeDBPlugin 1.0
#
DISCID=e70c3c0f
DTITLE=The Harcourtst - Country Roads
DYEAR=1900
DGENRE=Country
TTITLE0=I Wouldn't Change You If I Could
TTITLE1=Branded Man
TTITLE2=Love In The Candlelight
TTITLE3=Till Each Tear Becomes A Rose
TTITLE4=New Patches
TTITLE5=Mamas Don't Let Your Babies
TTITLE6=You've Never Been This Far Before
TTITLE7=Give My Love To Rose
TTITLE8=I'm Just Me
TTITLE9=Country Roads
TTITLE10=Shadow Pictures On The Wall
TTITLE11=From Holding Time
TTITLE12=This Is My Year For Mexico
TTITLE13=Wake Up
TTITLE14=Too Old To Die Young
EXTD=
EXTT0=
EXTT1=
EXTT2=
EXTT3=
EXTT4=
EXTT5=
EXTT6=
EXTT7=
EXTT8=
EXTT9=
EXTT10=
EXTT11=
EXTT12=
EXTT13=
EXTT14=
PLAYORDER=
